<mxfile host="app.diagrams.net" modified="2022-01-24T01:40:16.518Z" agent="5.0 (Macintosh; Intel Mac OS X 10_15_7) AppleWebKit/537.36 (KHTML, like Gecko) Chrome/97.0.4692.99 Safari/537.36" etag="YM9dsVzLbVWBpfQ8-4w6" version="16.4.5" type="github">
  <diagram id="K3yFuN3bXhvdaabBG9vb" name="Page-1">
    <mxGraphModel dx="1069" dy="615" grid="1" gridSize="10" guides="1" tooltips="1" connect="1" arrows="1" fold="1" page="1" pageScale="1" pageWidth="827" pageHeight="1169" math="0" shadow="0">
      <root>
        <mxCell id="0" />
        <mxCell id="1" parent="0" />
        <mxCell id="AWUChQmKnUbo7CcPn0ns-1" value="" style="rounded=0;whiteSpace=wrap;html=1;movable=0;resizable=0;rotatable=0;deletable=0;editable=0;connectable=0;fillColor=#f9f7ed;strokeColor=#36393d;" vertex="1" parent="1">
          <mxGeometry x="160" y="87.5" width="500" height="252.5" as="geometry" />
        </mxCell>
        <mxCell id="AWUChQmKnUbo7CcPn0ns-2" value="delay.message" style="edgeStyle=orthogonalEdgeStyle;rounded=0;orthogonalLoop=1;jettySize=auto;html=1;entryX=0;entryY=0.5;entryDx=0;entryDy=0;" edge="1" parent="1" source="AWUChQmKnUbo7CcPn0ns-3" target="AWUChQmKnUbo7CcPn0ns-12">
          <mxGeometry x="-0.6235" relative="1" as="geometry">
            <Array as="points">
              <mxPoint x="190" y="213" />
              <mxPoint x="190" y="170" />
            </Array>
            <mxPoint as="offset" />
          </mxGeometry>
        </mxCell>
        <mxCell id="AWUChQmKnUbo7CcPn0ns-3" value="producer" style="ellipse;whiteSpace=wrap;html=1;fillColor=#cce5ff;strokeColor=#36393d;" vertex="1" parent="1">
          <mxGeometry x="23" y="185" width="60" height="55" as="geometry" />
        </mxCell>
        <mxCell id="AWUChQmKnUbo7CcPn0ns-4" style="edgeStyle=orthogonalEdgeStyle;rounded=0;orthogonalLoop=1;jettySize=auto;html=1;entryX=0;entryY=0.5;entryDx=0;entryDy=0;" edge="1" parent="1" source="AWUChQmKnUbo7CcPn0ns-6" target="AWUChQmKnUbo7CcPn0ns-15">
          <mxGeometry relative="1" as="geometry">
            <Array as="points">
              <mxPoint x="600" y="170" />
              <mxPoint x="600" y="215" />
              <mxPoint x="240" y="215" />
              <mxPoint x="240" y="265" />
            </Array>
          </mxGeometry>
        </mxCell>
        <mxCell id="AWUChQmKnUbo7CcPn0ns-5" value="dead.message" style="edgeLabel;html=1;align=center;verticalAlign=middle;resizable=0;points=[];" vertex="1" connectable="0" parent="AWUChQmKnUbo7CcPn0ns-4">
          <mxGeometry x="-0.0998" relative="1" as="geometry">
            <mxPoint x="-35.52" as="offset" />
          </mxGeometry>
        </mxCell>
        <mxCell id="AWUChQmKnUbo7CcPn0ns-6" value="" style="rounded=0;whiteSpace=wrap;html=1;fillColor=#e51400;strokeColor=#B20000;fontColor=#ffffff;" vertex="1" parent="1">
          <mxGeometry x="464" y="140" width="110" height="60" as="geometry" />
        </mxCell>
        <mxCell id="AWUChQmKnUbo7CcPn0ns-7" value="" style="endArrow=none;html=1;entryX=0.5;entryY=0;entryDx=0;entryDy=0;exitX=0.5;exitY=1;exitDx=0;exitDy=0;" edge="1" parent="1" source="AWUChQmKnUbo7CcPn0ns-6" target="AWUChQmKnUbo7CcPn0ns-6">
          <mxGeometry width="50" height="50" relative="1" as="geometry">
            <mxPoint x="444" y="225" as="sourcePoint" />
            <mxPoint x="494" y="215" as="targetPoint" />
          </mxGeometry>
        </mxCell>
        <mxCell id="AWUChQmKnUbo7CcPn0ns-8" value="" style="endArrow=none;html=1;entryX=0.25;entryY=0;entryDx=0;entryDy=0;exitX=0.25;exitY=1;exitDx=0;exitDy=0;" edge="1" parent="1" source="AWUChQmKnUbo7CcPn0ns-6" target="AWUChQmKnUbo7CcPn0ns-6">
          <mxGeometry width="50" height="50" relative="1" as="geometry">
            <mxPoint x="454" y="275" as="sourcePoint" />
            <mxPoint x="504" y="225" as="targetPoint" />
          </mxGeometry>
        </mxCell>
        <mxCell id="AWUChQmKnUbo7CcPn0ns-9" value="" style="endArrow=none;html=1;entryX=0.75;entryY=0;entryDx=0;entryDy=0;exitX=0.75;exitY=1;exitDx=0;exitDy=0;" edge="1" parent="1" source="AWUChQmKnUbo7CcPn0ns-6" target="AWUChQmKnUbo7CcPn0ns-6">
          <mxGeometry width="50" height="50" relative="1" as="geometry">
            <mxPoint x="454" y="275" as="sourcePoint" />
            <mxPoint x="504" y="225" as="targetPoint" />
          </mxGeometry>
        </mxCell>
        <mxCell id="AWUChQmKnUbo7CcPn0ns-10" style="edgeStyle=orthogonalEdgeStyle;rounded=0;orthogonalLoop=1;jettySize=auto;html=1;entryX=0;entryY=0.5;entryDx=0;entryDy=0;" edge="1" parent="1" source="AWUChQmKnUbo7CcPn0ns-12" target="AWUChQmKnUbo7CcPn0ns-6">
          <mxGeometry relative="1" as="geometry" />
        </mxCell>
        <mxCell id="AWUChQmKnUbo7CcPn0ns-11" value="delay.#" style="edgeLabel;html=1;align=center;verticalAlign=middle;resizable=0;points=[];" vertex="1" connectable="0" parent="AWUChQmKnUbo7CcPn0ns-10">
          <mxGeometry x="-0.1702" y="2" relative="1" as="geometry">
            <mxPoint as="offset" />
          </mxGeometry>
        </mxCell>
        <mxCell id="AWUChQmKnUbo7CcPn0ns-12" value="Exchange" style="ellipse;whiteSpace=wrap;html=1;fillColor=#1ba1e2;strokeColor=#006EAF;fontColor=#ffffff;" vertex="1" parent="1">
          <mxGeometry x="260" y="145" width="110" height="50" as="geometry" />
        </mxCell>
        <mxCell id="AWUChQmKnUbo7CcPn0ns-13" style="edgeStyle=orthogonalEdgeStyle;rounded=0;orthogonalLoop=1;jettySize=auto;html=1;entryX=0;entryY=0.5;entryDx=0;entryDy=0;" edge="1" parent="1" source="AWUChQmKnUbo7CcPn0ns-15" target="AWUChQmKnUbo7CcPn0ns-18">
          <mxGeometry relative="1" as="geometry" />
        </mxCell>
        <mxCell id="AWUChQmKnUbo7CcPn0ns-14" value="dead.#" style="edgeLabel;html=1;align=center;verticalAlign=middle;resizable=0;points=[];" vertex="1" connectable="0" parent="AWUChQmKnUbo7CcPn0ns-13">
          <mxGeometry x="-0.0235" relative="1" as="geometry">
            <mxPoint as="offset" />
          </mxGeometry>
        </mxCell>
        <mxCell id="AWUChQmKnUbo7CcPn0ns-15" value="DLX Exchange" style="ellipse;whiteSpace=wrap;html=1;fillColor=#1ba1e2;strokeColor=#006EAF;fontColor=#ffffff;" vertex="1" parent="1">
          <mxGeometry x="260" y="240" width="110" height="50" as="geometry" />
        </mxCell>
        <mxCell id="AWUChQmKnUbo7CcPn0ns-16" value="consumer" style="ellipse;whiteSpace=wrap;html=1;fillColor=#cce5ff;strokeColor=#36393d;" vertex="1" parent="1">
          <mxGeometry x="710" y="186.25" width="60" height="55" as="geometry" />
        </mxCell>
        <mxCell id="AWUChQmKnUbo7CcPn0ns-17" style="edgeStyle=orthogonalEdgeStyle;rounded=0;orthogonalLoop=1;jettySize=auto;html=1;entryX=0;entryY=0.5;entryDx=0;entryDy=0;" edge="1" parent="1" source="AWUChQmKnUbo7CcPn0ns-18" target="AWUChQmKnUbo7CcPn0ns-16">
          <mxGeometry relative="1" as="geometry">
            <Array as="points">
              <mxPoint x="630" y="265" />
              <mxPoint x="630" y="214" />
            </Array>
          </mxGeometry>
        </mxCell>
        <mxCell id="AWUChQmKnUbo7CcPn0ns-18" value="" style="rounded=0;whiteSpace=wrap;html=1;fillColor=#e51400;strokeColor=#B20000;fontColor=#ffffff;" vertex="1" parent="1">
          <mxGeometry x="464" y="235" width="110" height="60" as="geometry" />
        </mxCell>
        <mxCell id="AWUChQmKnUbo7CcPn0ns-19" value="" style="endArrow=none;html=1;entryX=0.5;entryY=0;entryDx=0;entryDy=0;exitX=0.5;exitY=1;exitDx=0;exitDy=0;" edge="1" parent="1" source="AWUChQmKnUbo7CcPn0ns-18" target="AWUChQmKnUbo7CcPn0ns-18">
          <mxGeometry width="50" height="50" relative="1" as="geometry">
            <mxPoint x="444" y="315" as="sourcePoint" />
            <mxPoint x="494" y="305" as="targetPoint" />
          </mxGeometry>
        </mxCell>
        <mxCell id="AWUChQmKnUbo7CcPn0ns-20" value="" style="endArrow=none;html=1;entryX=0.25;entryY=0;entryDx=0;entryDy=0;exitX=0.25;exitY=1;exitDx=0;exitDy=0;" edge="1" parent="1" source="AWUChQmKnUbo7CcPn0ns-18" target="AWUChQmKnUbo7CcPn0ns-18">
          <mxGeometry width="50" height="50" relative="1" as="geometry">
            <mxPoint x="454" y="365" as="sourcePoint" />
            <mxPoint x="504" y="315" as="targetPoint" />
          </mxGeometry>
        </mxCell>
        <mxCell id="AWUChQmKnUbo7CcPn0ns-21" value="" style="endArrow=none;html=1;entryX=0.75;entryY=0;entryDx=0;entryDy=0;exitX=0.75;exitY=1;exitDx=0;exitDy=0;" edge="1" parent="1" source="AWUChQmKnUbo7CcPn0ns-18" target="AWUChQmKnUbo7CcPn0ns-18">
          <mxGeometry width="50" height="50" relative="1" as="geometry">
            <mxPoint x="454" y="365" as="sourcePoint" />
            <mxPoint x="504" y="315" as="targetPoint" />
          </mxGeometry>
        </mxCell>
        <mxCell id="AWUChQmKnUbo7CcPn0ns-22" value="ttl设置为30分钟" style="text;html=1;strokeColor=none;fillColor=none;align=center;verticalAlign=middle;whiteSpace=wrap;rounded=0;" vertex="1" parent="1">
          <mxGeometry x="468.5" y="120" width="101" height="20" as="geometry" />
        </mxCell>
        <mxCell id="AWUChQmKnUbo7CcPn0ns-23" value="&lt;h1&gt;&lt;font style=&quot;font-size: 14px&quot;&gt;消息成为私信的三种情况&lt;/font&gt;&lt;span style=&quot;font-size: 12px ; font-weight: 400&quot;&gt;：&lt;/span&gt;&lt;/h1&gt;&lt;div style=&quot;font-size: 14px&quot;&gt;&lt;font style=&quot;font-size: 14px&quot;&gt;1.队列消息长度到达限制&lt;/font&gt;&lt;/div&gt;&lt;div style=&quot;font-size: 14px&quot;&gt;&lt;font style=&quot;font-size: 14px&quot;&gt;2.消费者拒收消息，并且不重回队列&lt;/font&gt;&lt;/div&gt;&lt;div style=&quot;font-size: 14px&quot;&gt;&lt;font style=&quot;font-size: 14px&quot;&gt;3.原队列存在消息过期设置，消息到达过期时间未被消费&lt;/font&gt;&lt;/div&gt;" style="text;html=1;strokeColor=none;fillColor=none;spacing=5;spacingTop=-20;whiteSpace=wrap;overflow=hidden;rounded=0;" vertex="1" parent="1">
          <mxGeometry x="60" y="360" width="380" height="120" as="geometry" />
        </mxCell>
      </root>
    </mxGraphModel>
  </diagram>
</mxfile>
